<?xml version="1.0" encoding="utf-8"?>
<!-- Generator: Adobe Illustrator 17.1.0, SVG Export Plug-In . SVG Version: 6.00 Build 0)  -->
<!DOCTYPE svg PUBLIC "-//W3C//DTD SVG 1.1//EN" "http://www.w3.org/Graphics/SVG/1.1/DTD/svg11.dtd">
<svg version="1.1" id="Layer_1" xmlns="http://www.w3.org/2000/svg" xmlns:xlink="http://www.w3.org/1999/xlink" x="0px" y="0px"
	 viewBox="0 0 31 31" enable-background="new 0 0 31 31" xml:space="preserve">
<g>
	<g>
		<path fill="#007BB6" d="M28.7,0H2.3C1,0,0,1,0,2.2v26.5C0,30,1,31,2.3,31h26.4c1.3,0,2.3-1,2.3-2.2V2.2C31,1,30,0,28.7,0z"/>
		<path fill="#FFFFFF" d="M4.6,11.6h4.6v14.8H4.6V11.6z M6.9,4.3c1.5,0,2.7,1.2,2.7,2.7c0,1.5-1.2,2.7-2.7,2.7
			c-1.5,0-2.7-1.2-2.7-2.7C4.2,5.5,5.4,4.3,6.9,4.3"/>
		<path fill="#FFFFFF" d="M12.1,11.6h4.4v2h0.1c0.6-1.2,2.1-2.4,4.4-2.4c4.7,0,5.5,3.1,5.5,7v8.1h-4.6v-7.2c0-1.7,0-3.9-2.4-3.9
			c-2.4,0-2.8,1.9-2.8,3.8v7.3h-4.6V11.6z"/>
	</g>
</g>
<g>
</g>
<g>
</g>
<g>
</g>
<g>
</g>
<g>
</g>
<g>
</g>
</svg>
